<?xml version="1.0" encoding="utf-8"?>
<!-- Generator: Adobe Illustrator 16.0.0, SVG Export Plug-In . SVG Version: 6.00 Build 0)  -->
<!DOCTYPE svg PUBLIC "-//W3C//DTD SVG 1.1//EN" "http://www.w3.org/Graphics/SVG/1.1/DTD/svg11.dtd">
<svg version="1.1" id="Layer_1" xmlns="http://www.w3.org/2000/svg" xmlns:xlink="http://www.w3.org/1999/xlink" x="0px" y="0px"
	 width="40px" height="40px" viewBox="0 0 40 40" enable-background="new 0 0 40 40" xml:space="preserve">
<path fill="#FFFFFF" d="M26.394,12.045l2.881-1.056l-3.06-0.236L25.168,7.8l-0.214,3.127l-2.88,1.058l3.057,0.235l1.047,2.954
	L26.394,12.045z M21.879,14.683c-0.793-0.237-2.321,0.51-3,1.203c-1.053,1.074-1.524,2.087-1.357,2.984
	c0.073,0.128,6.875,6.631,6.875,6.631c1.336-0.104,3.137-1.45,3.488-2.942C27.885,22.559,21.965,14.756,21.879,14.683
	 M18.144,18.779c1.724-0.113,3.093-2.263,3.093-2.263c0.095,2.479-2.244,2.998-2.244,2.998L18.144,18.779z M28.156,23.43
	c-0.088,0.744-1.363,2.541-2.863,2.486c2.436,2.375,3.621,3.845,7.723,8.662c0,0,1.145,0.281,2.037-0.625
	c0.895-0.907,0.652-1.632,0.652-1.632C29.083,24.64,29.572,25.395,28.156,23.43 M6.109,21.094l4.936-1.719l3.649,3.896l-1.799-5.029
	l3.776-3.613l-4.933,1.718l-3.651-3.896l1.8,5.03L6.109,21.094z M8.51,16.969l-0.742-0.246L7.677,15.94l-0.229,0.746l-0.771,0.078
	l0.742,0.247l0.093,0.78l0.229-0.744L8.51,16.969z M19.367,11.023l0.957-0.263l-0.986-0.155l-0.282-0.973l-0.133,0.998l-0.958,0.264
	l0.988,0.152l0.281,0.976L19.367,11.023z M17.094,9.791l2.553-2.444l-3.337,1.162l-2.467-2.634l1.216,3.402l-2.553,2.442
	l3.336-1.162l2.47,2.635L17.094,9.791z M12.351,13.01l0.065,0.749l-0.652,0.353l0.739-0.049l0.361,0.66l-0.064-0.75l0.65-0.348
	l-0.741,0.05L12.351,13.01z"/>
</svg>
