<?xml version="1.0" encoding="utf-8"?>
<!-- Generator: Adobe Illustrator 16.0.0, SVG Export Plug-In . SVG Version: 6.00 Build 0)  -->
<!DOCTYPE svg PUBLIC "-//W3C//DTD SVG 1.1//EN" "http://www.w3.org/Graphics/SVG/1.1/DTD/svg11.dtd">
<svg version="1.1" id="Layer_2" xmlns="http://www.w3.org/2000/svg" xmlns:xlink="http://www.w3.org/1999/xlink" x="0px" y="0px"
	 width="150px" height="40px" viewBox="0 0 150 40" enable-background="new 0 0 150 40" xml:space="preserve">
<g>
	<path fill="none" d="M130.68,23.687c-0.526,0.284-0.988,0.671-1.382,1.163c-0.394,0.495-0.728,1.088-1.001,1.783
		c-0.277,0.698-0.49,1.461-0.643,2.289c-0.394,1.907-0.496,3.374-0.314,4.393c0.188,1.021,0.609,1.529,1.266,1.529
		c0.286,0,0.667-0.2,1.136-0.606c0.47-0.4,0.963-0.983,1.478-1.748c0.514-0.763,1.018-1.695,1.513-2.793
		c0.492-1.098,0.893-2.344,1.2-3.737l0.558-2.351c-0.568-0.228-1.24-0.34-2.005-0.34C131.806,23.267,131.205,23.409,130.68,23.687z"
		/>
	<path fill="none" d="M13.768,20.8c0.207,0.423,0.182,0.354,1.506,5.319c0.097,0.378-0.974-5.304-0.974-5.304
		S13.94,20.89,13.768,20.8z"/>
	<path fill="none" d="M99.164,23.687c-0.525,0.284-0.986,0.671-1.379,1.163c-0.397,0.493-0.729,1.09-1.006,1.783
		c-0.274,0.698-0.486,1.461-0.641,2.289c-0.393,1.907-0.497,3.374-0.311,4.393c0.186,1.021,0.606,1.529,1.266,1.529
		c0.285,0,0.663-0.2,1.133-0.606c0.469-0.4,0.957-0.983,1.463-1.748c0.502-0.763,1.002-1.695,1.493-2.793
		c0.494-1.098,0.903-2.344,1.23-3.737l0.563-2.351c-0.57-0.228-1.237-0.34-2.006-0.34C100.293,23.267,99.69,23.409,99.164,23.687z"
		/>
	<path fill="none" d="M10.729,11.864l0.191,0.517c0,0,1.763,0.426,3.01-0.863C13.93,11.519,12.031,12.507,10.729,11.864z"/>
	<path fill="#544E52" d="M75.069,16.248c0,0,0.254-1.074,0.164-1.424c0,0-4.586,0.199-7.566,0c0,0,0.048,1.268,0.162,1.424
		c0,0,1.573,0.125,1.922,1.485c0,0,0.191,0.59,0.388,1.418c1.032,4.368,3.814,18.071,3.959,18.45c0,0,0.903,0.049,1.207-0.05
		L81.2,19.664l6.636,17.812c0,0,0.807,0.097,1.147-0.022c0,0,3.393-16.479,3.789-18.004c-0.002,0.002,0.618-3,2.307-3.201
		c0,0,0.272-1.035,0.228-1.424c0,0-3.928,0.096-6.209,0c0,0,0.02,1.152,0.226,1.424c0,0,1.495,0.221,1.789,1.275
		c0,0,0.263,0.656-0.076,2.586c0,0-1.891,10.515-2.119,11.442l-6.188-16.893c0,0-0.862-0.146-1.462,0.046l-5.62,17.16
		c0,0-2.266-10.671-2.607-13.143c0,0-0.22-1.615,0.308-2.08C73.345,16.644,73.499,16.239,75.069,16.248z"/>
	<path fill="#544E52" d="M31.898,31.491L25.727,14.66c0,0-0.857-0.146-1.46,0.046l-5.623,17.16l-0.042,0.151
		c-1.591-8.368-2.046-10.855-2.25-12.882c-0.376,0.502-2.469,1.451-3.538,0.779c0.775,2.753,1.545,5.569,4.266,17.657l0.024-0.046
		l-0.015,0.056c0.001,0.008,0.004,0.018,0.006,0.02c0,0,0.905,0.049,1.208-0.05l5.897-17.887l6.635,17.809
		c0,0,0.811,0.099,1.151-0.018c0,0,3.39-16.481,3.786-18.006c0,0,0.621-3.002,2.309-3.203c-0.002,0,0.272-1.035,0.226-1.424
		c0,0-3.927,0.095-6.208,0c0,0,0.02,1.152,0.225,1.424c0,0,1.497,0.221,1.791,1.275c0,0,0.264,0.656-0.076,2.585
		C34.036,20.109,32.125,30.565,31.898,31.491z M15.275,26.119c-1.324-4.965-1.299-4.896-1.506-5.319
		c0.171,0.09,0.532,0.016,0.532,0.016S15.371,26.497,15.275,26.119z"/>
	<path fill="#544E52" d="M61.856,27.879l-1.347,4.843c-0.395,1.462-0.465,2.635-0.214,3.52c0.253,0.886,0.925,1.327,2.021,1.327
		c0.614,0,1.233-0.195,1.856-0.588c0.626-0.393,1.256-0.946,1.889-1.665c-0.066-0.493-0.262-0.852-0.591-1.08
		c-0.328,0.339-0.639,0.585-0.935,0.743c-0.296,0.157-0.554,0.234-0.773,0.234c-0.154,0-0.279-0.033-0.378-0.101
		c-0.098-0.069-0.159-0.191-0.181-0.371c-0.02-0.177,0-0.445,0.064-0.788c0.066-0.349,0.175-0.792,0.33-1.332l1.809-6.492
		c0.372-1.392,0.486-2.429,0.344-3.114c-0.143-0.684-0.552-1.171-1.233-1.462c-0.197,0.134-0.453,0.273-0.773,0.417
		c-0.318,0.146-0.657,0.288-1.018,0.42c-0.362,0.137-0.718,0.255-1.069,0.357c-0.349,0.101-0.657,0.161-0.92,0.183
		c-0.153,0.357-0.22,0.785-0.197,1.281c0.547,0,0.971,0.031,1.267,0.099c0.296,0.069,0.487,0.225,0.575,0.473
		c0.086,0.249,0.081,0.609-0.019,1.095C62.268,26.357,62.097,27.027,61.856,27.879z"/>
	<path fill="#544E52" d="M64.652,20.206c0.547,0,1.02-0.185,1.413-0.556c0.395-0.37,0.647-0.846,0.755-1.43
		c0.133-0.628,0.066-1.127-0.196-1.497c-0.264-0.371-0.67-0.555-1.217-0.555c-0.504,0-0.955,0.184-1.348,0.555
		c-0.394,0.37-0.657,0.869-0.789,1.497c-0.109,0.585-0.039,1.06,0.214,1.43C63.736,20.021,64.126,20.206,64.652,20.206z"/>
	<path fill="#544E52" d="M48.092,21.189L45.233,37.28h2.99l1.018-5.929c0.023-0.155,0.044-0.306,0.065-0.441
		c0.017-0.103,0.047-0.223,0.076-0.341l0.056-0.046c0.42,0.654,0.779,1.271,1.067,1.848c0.296,0.595,0.595,1.297,0.905,2.104
		c0.218,0.585,0.421,1.076,0.607,1.482c0.187,0.401,0.394,0.723,0.625,0.956c0.231,0.236,0.487,0.407,0.772,0.504
		c0.284,0.103,0.646,0.154,1.084,0.154c0.459,0,1.012-0.219,1.659-0.658c0.646-0.438,1.233-0.979,1.758-1.633
		c-0.133-0.421-0.329-0.782-0.591-1.074c-0.329,0.359-0.602,0.611-0.822,0.756c-0.22,0.147-0.439,0.219-0.659,0.219
		c-0.308,0-0.564-0.091-0.771-0.271c-0.211-0.178-0.468-0.593-0.773-1.243c-0.921-1.976-1.73-3.265-2.431-3.869
		c0.001-0.002,0.005-0.002,0.007-0.002c-0.264-0.213-0.569-0.375-0.87-0.501l0.562-0.441l2.858-2.661
		c0.81-0.761,1.523-1.288,2.136-1.578c0.613-0.294,1.237-0.449,1.874-0.473c0.088-0.201,0.149-0.432,0.182-0.69
		c0.034-0.256,0.048-0.554,0.048-0.776c-0.591,0.041-1.162,0.01-1.708,0.01h-2.892c-0.571,0-1.206,0.031-1.906-0.012
		c0,0.494,0.066,0.981,0.197,1.405c0.635,0,0.953,0.195,0.953,0.554c0,0.246-0.165,0.59-0.493,1.017
		c-0.329,0.426-0.977,0.992-1.721,1.686l-1.527,1.38c0.268-1.362,2.053-10.974,2.318-12.481c0.219-1.21-0.159-1.926-0.837-2.151
		c-0.242,0.134-0.56,0.273-0.953,0.42c-0.395,0.146-0.575,0.286-1.003,0.42c-0.428,0.134-0.844,0.251-1.249,0.353
		s-0.739,0.164-1.002,0.185c-0.176,0.337-0.24,0.764-0.196,1.28c0.524,0,0.937,0.024,1.232,0.069
		c0.295,0.044,0.499,0.172,0.609,0.387c0.11,0.213,0.142,0.538,0.098,0.975C48.539,18.61,48.223,20.403,48.092,21.189z"/>
	<path fill="#544E52" d="M41.975,20.206c0.548,0,1.021-0.185,1.415-0.556c0.395-0.37,0.647-0.846,0.756-1.43
		c0.131-0.628,0.065-1.127-0.198-1.497c-0.262-0.371-0.668-0.555-1.216-0.555c-0.505,0-0.952,0.184-1.347,0.555
		c-0.395,0.37-0.658,0.869-0.788,1.497c-0.112,0.585-0.04,1.06,0.213,1.43C41.063,20.021,41.453,20.206,41.975,20.206z"/>
	<path fill="#544E52" d="M38.756,22.747c-0.349,0.103-0.657,0.163-0.919,0.185c-0.154,0.357-0.22,0.785-0.198,1.281
		c0.548,0,0.969,0.029,1.266,0.099c0.294,0.069,0.487,0.225,0.573,0.473c0.09,0.249,0.083,0.609-0.017,1.095
		c-0.098,0.48-0.268,1.148-0.508,2l-1.348,4.843c-0.396,1.462-0.466,2.635-0.213,3.52c0.251,0.886,0.924,1.327,2.021,1.327
		c0.612,0,1.233-0.195,1.855-0.588c0.625-0.393,1.254-0.946,1.89-1.665c-0.065-0.493-0.263-0.852-0.592-1.08
		c-0.326,0.339-0.638,0.585-0.935,0.743c-0.295,0.157-0.554,0.234-0.772,0.234c-0.153,0-0.28-0.033-0.378-0.101
		c-0.098-0.069-0.158-0.191-0.179-0.371c-0.023-0.177,0-0.445,0.064-0.788c0.066-0.349,0.173-0.792,0.329-1.332l1.808-6.492
		c0.372-1.392,0.487-2.429,0.345-3.114c-0.141-0.684-0.553-1.171-1.233-1.462c-0.197,0.134-0.453,0.273-0.77,0.417
		c-0.319,0.146-0.66,0.288-1.02,0.42C39.461,22.528,39.105,22.645,38.756,22.747z"/>
	<path fill="#544E52" d="M12.479,10.069c-1.219,0.339-1.986,0.88-2.241,1.603c-0.001,0.125,2.47,7.806,2.47,7.806
		c1.016,0.487,2.638,0.169,3.521-0.768c0,0-1.029-8.167-1.062-8.256C14.688,9.949,13.264,9.851,12.479,10.069z M10.921,12.382
		l-0.191-0.517c1.302,0.643,3.202-0.346,3.202-0.346C12.683,12.808,10.921,12.382,10.921,12.382z"/>
	<path fill="#544E52" d="M103.929,32.319l1.643-7.537c0.154-0.674,0.251-1.21,0.295-1.614c0.046-0.403,0.055-0.717,0.034-0.943
		c-0.023-0.223-0.072-0.381-0.149-0.472c-0.077-0.09-0.157-0.157-0.246-0.202c-0.217,0.112-0.503,0.19-0.855,0.234
		c-0.348,0.047-0.687,0.068-1.019,0.068c-0.243-0.09-0.53-0.163-0.869-0.221c-0.34-0.055-0.665-0.082-0.971-0.082
		c-1.072,0-2.088,0.225-3.041,0.672c-0.952,0.449-1.819,1.066-2.596,1.851c-0.778,0.784-1.441,1.725-1.986,2.811
		c-0.549,1.086-0.954,2.284-1.216,3.583c-0.483,2.489-0.494,4.297-0.03,5.416c0.458,1.123,1.235,1.684,2.331,1.684
		c0.612,0,1.209-0.156,1.791-0.472c0.58-0.312,1.129-0.721,1.644-1.228c0.513-0.503,0.99-1.063,1.428-1.68
		c0.438-0.618,0.812-1.239,1.116-1.87h0.034c-0.196,0.471-0.361,1.009-0.493,1.614c-0.133,0.607-0.165,1.179-0.099,1.719
		c0.067,0.538,0.268,0.991,0.609,1.361c0.339,0.369,0.881,0.553,1.627,0.553c0.569,0,1.188-0.225,1.857-0.673
		c0.667-0.447,1.265-0.983,1.79-1.614c-0.065-0.2-0.143-0.386-0.229-0.554c-0.088-0.165-0.207-0.329-0.363-0.488
		c-0.436,0.382-0.787,0.648-1.05,0.79c-0.263,0.147-0.514,0.219-0.754,0.219c-0.178,0-0.313-0.031-0.413-0.101
		c-0.099-0.064-0.159-0.201-0.178-0.402c-0.024-0.202,0-0.492,0.064-0.877C103.698,33.486,103.797,32.97,103.929,32.319z
		 M102.414,25.959c-0.327,1.394-0.735,2.638-1.23,3.737c-0.492,1.098-0.99,2.03-1.493,2.793c-0.507,0.763-0.995,1.346-1.463,1.748
		c-0.47,0.404-0.847,0.604-1.133,0.604c-0.658,0-1.081-0.508-1.267-1.529c-0.186-1.017-0.081-2.485,0.312-4.391
		c0.153-0.83,0.366-1.593,0.641-2.289c0.275-0.693,0.609-1.29,1.005-1.783c0.393-0.492,0.855-0.879,1.381-1.163
		c0.525-0.279,1.127-0.42,1.805-0.42c0.77,0,1.438,0.112,2.006,0.34L102.414,25.959z"/>
	<path fill="#544E52" d="M137.939,13.612c-0.242,0.135-0.56,0.275-0.955,0.42c-0.393,0.147-0.805,0.286-1.229,0.421
		c-0.427,0.135-0.847,0.252-1.251,0.354c-0.405,0.101-0.738,0.163-1.003,0.185c-0.108,0.181-0.168,0.376-0.178,0.591
		c-0.017,0.213-0.02,0.443-0.02,0.689c0.526,0,0.935,0.023,1.233,0.067c0.295,0.046,0.498,0.174,0.607,0.387
		c0.111,0.214,0.143,0.539,0.098,0.976c-0.045,0.438-0.132,0.813-0.263,1.599c-0.064,0.45-0.125,0.875-0.178,1.279
		c-0.057,0.403-0.097,0.786-0.115,1.143c-0.504-0.112-0.966-0.167-1.381-0.167c-1.074,0-2.086,0.223-3.042,0.674
		c-0.951,0.449-1.816,1.064-2.593,1.849c-0.777,0.786-1.44,1.723-1.992,2.811c-0.546,1.088-0.948,2.282-1.212,3.583
		c-0.482,2.489-0.491,4.295-0.033,5.418c0.461,1.123,1.24,1.682,2.334,1.682c0.635,0,1.259-0.166,1.874-0.501
		c0.613-0.335,1.184-0.778,1.71-1.314c0.524-0.536,1.005-1.138,1.445-1.798c0.438-0.664,0.81-1.318,1.118-1.969h0.031
		c-0.154,0.538-0.302,1.133-0.442,1.781c-0.142,0.652-0.187,1.256-0.136,1.821c0.058,0.558,0.255,1.031,0.596,1.409
		c0.337,0.383,0.9,0.574,1.69,0.574c0.571,0,1.2-0.225,1.891-0.675c0.688-0.449,1.296-0.987,1.823-1.616
		c-0.064-0.2-0.143-0.384-0.229-0.554c-0.089-0.165-0.209-0.331-0.36-0.488c-0.438,0.382-0.789,0.645-1.052,0.79
		c-0.262,0.148-0.515,0.217-0.756,0.217c-0.155,0-0.273-0.031-0.362-0.099c-0.087-0.068-0.13-0.234-0.13-0.506
		c0-0.269,0.036-0.667,0.114-1.192c0.076-0.528,0.188-1.246,0.341-2.143l2.694-15.546C138.827,14.555,138.597,13.837,137.939,13.612
		z M133.932,25.959c-0.307,1.394-0.707,2.638-1.2,3.737c-0.494,1.098-0.999,2.03-1.513,2.793c-0.516,0.763-1.008,1.346-1.478,1.748
		c-0.469,0.404-0.85,0.604-1.136,0.604c-0.656,0-1.078-0.508-1.266-1.529c-0.182-1.017-0.079-2.485,0.314-4.391
		c0.152-0.83,0.365-1.593,0.643-2.289c0.273-0.695,0.607-1.29,1.001-1.783c0.394-0.495,0.855-0.879,1.382-1.163
		c0.527-0.279,1.126-0.42,1.805-0.42c0.767,0,1.438,0.112,2.005,0.34L133.932,25.959z"/>
	<path fill="#544E52" d="M110.14,27.473l-1.806,9.796h2.991l0.819-4.376c0.243-1.326,0.604-2.536,1.083-3.634
		c0.483-1.098,0.998-2.048,1.547-2.847c0.547-0.792,1.09-1.409,1.627-1.847c0.535-0.439,0.97-0.656,1.297-0.656
		c0.242,0,0.454,0.062,0.643,0.184c0.186,0.122,0.317,0.343,0.393,0.656c0.078,0.313,0.1,0.745,0.065,1.295
		c-0.031,0.55-0.146,1.252-0.343,2.104l-0.889,4.004c-0.176,0.829-0.317,1.582-0.427,2.254c-0.109,0.675-0.127,1.246-0.049,1.717
		c0.076,0.47,0.266,0.83,0.573,1.076c0.309,0.248,0.791,0.369,1.447,0.369c0.592,0,1.188-0.182,1.793-0.555
		c0.601-0.37,1.264-0.936,1.988-1.696c-0.09-0.406-0.285-0.763-0.594-1.08c-0.266,0.27-0.577,0.513-0.937,0.726
		c-0.362,0.215-0.666,0.318-0.905,0.318c-0.133,0-0.236-0.021-0.311-0.066c-0.077-0.046-0.112-0.17-0.1-0.373
		c0.013-0.2,0.061-0.512,0.148-0.939c0.089-0.424,0.218-1.021,0.393-1.786l0.955-4.104c0.306-1.32,0.443-2.406,0.411-3.246
		c-0.034-0.843-0.169-1.498-0.411-1.969c-0.241-0.473-0.542-0.796-0.904-0.976c-0.36-0.182-0.719-0.268-1.065-0.268
		c-0.57,0-1.179,0.165-1.827,0.502c-0.646,0.337-1.27,0.769-1.87,1.297c-0.604,0.526-1.146,1.096-1.627,1.715
		c-0.485,0.619-0.854,1.196-1.12,1.734l-0.525,1.144h-0.032c0.24-0.56,0.466-1.161,0.674-1.802c0.209-0.639,0.4-1.438,0.573-2.402
		c0.199-1.234-0.032-1.965-0.688-2.188c-0.242,0.134-0.559,0.271-0.952,0.417c-0.395,0.145-0.813,0.288-1.25,0.422
		c-0.439,0.133-0.86,0.253-1.266,0.354c-0.404,0.101-0.737,0.161-1.002,0.183c-0.11,0.182-0.17,0.379-0.183,0.592
		c-0.009,0.213-0.016,0.443-0.016,0.689c0.526,0,0.937,0.021,1.233,0.065c0.296,0.047,0.497,0.173,0.608,0.388
		c0.108,0.215,0.142,0.54,0.099,0.976C110.358,26.079,110.271,26.692,110.14,27.473z"/>
	<polygon fill="#40BBE1" points="6.333,13.688 7.137,9.271 11.402,8.229 7.091,7.404 6.071,3.035 5.268,7.452 1,8.498 5.313,9.318 	
		"/>
	<polygon fill="#40BBE1" points="3.196,5.834 3.789,6.101 3.352,5.61 3.614,5.001 3.133,5.448 2.539,5.182 2.976,5.675 2.716,6.28 	
		"/>
	<polygon fill="#40BBE1" points="8.859,6.125 9.478,6.144 8.917,5.868 8.937,5.234 8.668,5.806 8.048,5.789 8.608,6.063 
		8.591,6.697 	"/>
	<polygon fill="#FFBF13" points="16.993,8.201 16.373,8.184 16.933,8.458 16.914,9.093 17.182,8.521 17.802,8.539 17.242,8.263 
		17.261,7.627 	"/>
	<polygon fill="#BF60A2" points="9.592,4.36 12.509,4.917 13.199,7.87 13.743,4.882 16.627,4.177 13.71,3.621 13.022,0.667 
		12.477,3.653 	"/>
	<polygon fill="#BF60A2" points="14.72,6.262 13.912,6.052 14.566,6.58 14.36,7.407 14.877,6.736 15.684,6.947 15.03,6.419 
		15.235,5.592 	"/>
	<polygon fill="#FFBF13" points="18.334,10.472 18.88,12.816 19.311,10.446 21.598,9.888 19.285,9.446 18.74,7.106 18.309,9.47 
		16.021,10.031 	"/>
</g>
</svg>
