<?xml version="1.0" encoding="utf-8"?>
<!-- Generator: Adobe Illustrator 16.0.0, SVG Export Plug-In . SVG Version: 6.00 Build 0)  -->
<!DOCTYPE svg PUBLIC "-//W3C//DTD SVG 1.1//EN" "http://www.w3.org/Graphics/SVG/1.1/DTD/svg11.dtd">
<svg version="1.1" id="Layer_3" xmlns="http://www.w3.org/2000/svg" xmlns:xlink="http://www.w3.org/1999/xlink" x="0px" y="0px"
	 width="150px" height="40px" viewBox="0 0 150 40" enable-background="new 0 0 150 40" xml:space="preserve">
<g>
	<path fill-rule="evenodd" clip-rule="evenodd" d="M18.902,30.393c1.178-2.171,2.238-4.084,3.244-6.025
		c0.146-0.284,0.146-0.76,0.011-1.053c-1.133-2.459-2.299-4.901-3.485-7.334c-0.485-0.993-1.154-1.808-2.352-2.014
		c-0.236-0.042-0.436-0.287-0.577-0.697c2.606,0,5.211,0,7.816,0c0.048,0.075,0.097,0.15,0.145,0.225
		c-0.282,0.179-0.542,0.424-0.849,0.523c-1.343,0.435-1.594,0.889-0.998,2.167c0.689,1.477,1.446,2.921,2.325,4.683
		c0.92-1.836,1.816-3.422,2.478-5.101c0.147-0.374-0.455-1.144-0.863-1.596c-0.238-0.265-0.774-0.262-1.191-0.386
		c0.381-0.641,5.04-0.92,7.364-0.413c-0.514,0.307-0.827,0.464-1.107,0.667c-0.809,0.585-1.841,1.035-2.359,1.819
		c-1.25,1.895-2.269,3.943-3.353,5.945c-0.126,0.233-0.208,0.614-0.106,0.829c1.176,2.469,2.391,4.92,3.704,7.594
		c1.379-3.182,2.664-6.13,3.935-9.083c0.646-1.499,1.296-2.998,1.89-4.517c0.577-1.476,0.245-2.106-1.227-2.647
		c-0.263-0.096-0.465-0.355-0.549-0.788c2.216,0,4.431,0,6.9,0c-0.261,0.341-0.385,0.679-0.557,0.705
		c-1.853,0.29-2.592,1.704-3.251,3.179c-2.018,4.51-4.014,9.029-6.018,13.545c-0.453,1.021-0.885,2.052-1.374,3.056
		c-0.131,0.27-0.433,0.454-0.658,0.679c-0.219-0.236-0.508-0.438-0.646-0.715c-1.143-2.309-2.256-4.634-3.385-6.95
		c-0.185-0.378-0.402-0.736-0.716-1.307c-1.425,2.55-2.738,4.938-4.099,7.302c-0.345,0.601-0.842,1.113-1.27,1.666
		c-0.374-0.595-0.829-1.155-1.11-1.792c-2.225-5.029-4.43-10.066-6.607-15.116c-0.745-1.728-1.633-3.238-3.726-3.521
		c-0.14-0.02-0.275-0.173-0.385-0.29c-0.042-0.045-0.007-0.162-0.007-0.354c0.195-0.045,0.421-0.142,0.648-0.144
		c2.449-0.011,4.897-0.019,7.347,0.006c0.29,0.003,0.578,0.205,0.868,0.315c-0.233,0.192-0.438,0.461-0.706,0.562
		c-1.592,0.599-1.865,1.19-1.191,2.731c1.79,4.093,3.581,8.187,5.375,12.278C18.402,29.411,18.603,29.783,18.902,30.393z"/>
	<path fill-rule="evenodd" clip-rule="evenodd" d="M148.553,33.854c-0.28,0.039-0.563,0.115-0.844,0.116
		c-2.531,0.008-5.066,0.018-7.603-0.011c-0.331-0.003-0.66-0.218-0.991-0.334c0.315-0.191,0.611-0.494,0.95-0.553
		c1.645-0.287,1.946-0.681,1.468-2.244c-0.453-1.479-0.93-2.952-1.489-4.392c-0.128-0.328-0.642-0.694-0.994-0.711
		c-1.546-0.077-3.097-0.068-4.642-0.006c-0.34,0.014-0.848,0.298-0.963,0.583c-0.614,1.512-1.183,3.045-1.655,4.604
		c-0.385,1.273,0.029,1.805,1.313,2.125c0.384,0.097,0.72,0.385,1.079,0.586c-0.415,0.119-0.827,0.33-1.244,0.338
		c-1.758,0.038-3.52,0.02-5.278,0.012c-0.36-0.002-0.722-0.054-1.083-0.083c-0.134-0.186-0.27-0.371-0.402-0.559
		c0.277-0.073,0.552-0.198,0.836-0.215c1.834-0.112,2.694-1.386,3.313-2.857c1.461-3.485,2.866-6.997,4.3-10.495
		c0.864-2.107,1.729-4.213,2.618-6.31c0.121-0.284,0.391-0.505,0.591-0.755c0.234,0.268,0.573,0.499,0.688,0.811
		c1.905,5.205,3.827,10.406,5.639,15.644c0.707,2.047,1.634,3.696,4.025,3.961c0.237,0.026,0.463,0.172,0.692,0.261
		C148.769,33.532,148.66,33.693,148.553,33.854z M136.822,17.136c-0.98,2.665-1.856,5.045-2.766,7.513c1.879,0,3.536,0,5.371,0
		c-0.723-2.125-1.407-4.145-2.096-6.161C137.211,18.136,137.07,17.791,136.822,17.136z"/>
	<path fill-rule="evenodd" clip-rule="evenodd" d="M47.585,19.311c2.188,0,4.375,0,6.592,0c-0.047,0.172-0.05,0.305-0.091,0.317
		c-2.234,0.691-2.153,0.386-2.155,3.161c-0.001,1.117,0,2.231,0.183,3.499c2.47-1.561,4.318-3.76,6.486-5.946
		c-0.677-0.336-1.131-0.562-1.585-0.787c0.013-0.068,0.026-0.137,0.039-0.206c1.665,0,3.329,0,4.994,0
		c-3.316,1.263-5.121,4.307-8.056,6.636c2.388,2.275,4.579,4.457,6.89,6.506c0.654,0.581,1.656,0.771,2.495,1.317
		c-2.348,0-4.694,0-7.042,0c-0.02-0.06-0.039-0.119-0.058-0.18c0.5-0.241,1.001-0.483,1.876-0.904
		c-1.995-2.033-3.846-3.919-5.696-5.805c-0.141,0.071-0.279,0.141-0.419,0.211c0,1.764-0.048,3.529,0.049,5.285
		c0.016,0.284,0.648,0.581,1.042,0.782c0.344,0.176,0.752,0.225,1.133,0.331c-0.016,0.104-0.032,0.208-0.049,0.311
		c-2.212,0-4.423,0-7.039,0c0.536-0.297,0.748-0.504,0.974-0.523c1.333-0.12,1.684-0.916,1.665-2.129
		c-0.042-2.664-0.012-5.333-0.012-8C49.801,20.5,49.801,20.5,47.585,19.311z"/>
	<path fill-rule="evenodd" clip-rule="evenodd" d="M100.237,33.701c2.457-1.163,2.457-1.163,2.457-3.936
		c0-2.236,0.038-4.474-0.009-6.709c-0.055-2.691,0.527-2.503-2.37-3.564c0.2-0.109,0.321-0.234,0.446-0.234
		c2.751-0.018,5.505-0.119,8.252-0.007c5.545,0.226,8.813,5.612,6.491,10.645c-1.276,2.767-3.69,3.904-6.56,4.042
		c-2.743,0.13-5.498,0.02-8.248,0.004C100.595,33.941,100.493,33.838,100.237,33.701z M104.776,26.541
		c0,1.72-0.058,3.443,0.04,5.159c0.026,0.487,0.462,1.315,0.796,1.364c1.953,0.274,3.944,0.487,5.674-0.888
		c2.465-1.962,3.32-5.499,2.031-8.537c-1.257-2.966-3.797-4.255-7.275-3.726c-0.877,0.133-1.276,0.584-1.27,1.467
		C104.79,23.101,104.776,24.822,104.776,26.541z"/>
	<path fill-rule="evenodd" clip-rule="evenodd" d="M73.326,19.383c3.18,0,6.088-0.168,8.965,0.058
		c1.906,0.151,3.024,1.78,3.112,3.699c0.095,2.141-1.014,3.825-3.006,4.421c-0.687,0.205-1.429,0.246-2.151,0.297
		c-0.715,0.047-1.436,0.01-2.259,0.01c0,1.462-0.079,2.829,0.047,4.178c0.038,0.408,0.6,0.833,1.01,1.119
		c0.318,0.222,0.776,0.239,1.144,0.636c-2.203,0-4.406,0-6.696,0c0.107-0.168,0.147-0.321,0.229-0.351
		c2.1-0.744,2.102-0.741,2.102-2.941c0.001-2.402,0-4.808,0-7.211C75.822,20.557,75.822,20.557,73.326,19.383z M77.948,23.78
		c0,0.813-0.066,1.634,0.031,2.435c0.039,0.332,0.387,0.844,0.662,0.894c1.359,0.243,2.664,0.063,3.637-1.063
		c0.962-1.11,1.106-3.223,0.365-4.616c-0.673-1.264-1.784-1.62-3.127-1.551c-1.112,0.057-1.623,0.602-1.577,1.718
		C77.97,22.324,77.945,23.051,77.948,23.78z"/>
	<path fill-rule="evenodd" clip-rule="evenodd" d="M99.525,30.346c-0.414,1.096-0.8,2.202-1.263,3.275
		c-0.082,0.188-0.479,0.336-0.732,0.336c-3.482,0.018-6.964,0.007-10.445-0.007c-0.107,0-0.216-0.092-0.598-0.472
		c0.175-0.027,0.355-0.035,0.522-0.088c2.04-0.642,2.04-0.643,2.04-2.818c0-2.754,0.001-5.507,0-8.26
		c-0.001-1.992-0.004-1.99-1.913-2.558c-0.138-0.041-0.257-0.151-0.695-0.416c3.962,0,7.571,0,11.291,0
		c0.23,1.058,0.466,2.142,0.744,3.427c-0.369-0.18-0.541-0.207-0.57-0.287c-1.038-2.888-3.472-2.496-5.733-2.372
		c-0.35,0.019-0.93,0.616-0.953,0.977c-0.107,1.572-0.047,3.157-0.047,4.711c3.023,0.617,3.691,0.305,5.019-2.535
		c0,2.161,0,3.989,0,5.852c-0.538-0.818-0.868-1.926-1.552-2.224c-0.951-0.414-2.167-0.224-3.43-0.303
		c0,1.988-0.066,3.818,0.062,5.634c0.024,0.33,0.828,0.81,1.313,0.867c2.733,0.33,5.133-0.25,6.569-3.026
		C99.279,30.153,99.403,30.25,99.525,30.346z"/>
	<path fill-rule="evenodd" clip-rule="evenodd" d="M118.3,33.828c0.2-0.229,0.259-0.365,0.356-0.401
		c2.111-0.78,2.111-0.778,2.112-3.051c0-2.447,0.031-4.895-0.009-7.342c-0.048-2.772,0.467-2.491-2.268-3.653
		c2.183,0,4.363,0,6.561,0c-0.021,0.095-0.019,0.225-0.057,0.24c-2.143,0.805-2.144,0.805-2.144,3.206
		c0,2.706,0.036,5.412-0.016,8.115c-0.026,1.334,0.25,2.303,1.807,2.393c0.177,0.012,0.347,0.182,0.481,0.493
		C122.898,33.828,120.674,33.828,118.3,33.828z"/>
	<path fill-rule="evenodd" clip-rule="evenodd" d="M38.731,33.497c0.236-0.069,0.468-0.175,0.709-0.201
		c1.243-0.13,1.614-0.858,1.592-2.035c-0.05-2.744,0.013-5.492-0.024-8.237c-0.04-2.926,0.424-2.475-2.254-3.645
		c2.181,0,4.361,0,6.549,0c-0.019,0.1-0.013,0.23-0.051,0.245c-2.119,0.798-2.12,0.796-2.121,3.093c0,2.66-0.001,5.321,0.001,7.981
		c0.002,2.039,0.006,2.035,1.92,2.671c0.138,0.046,0.244,0.186,0.592,0.46c-2.495,0-4.721,0-6.945,0
		C38.711,33.719,38.721,33.607,38.731,33.497z"/>
	<path fill-rule="evenodd" clip-rule="evenodd" d="M71.5,33.854c-2.328,0-4.535,0-6.878,0c0.17-0.235,0.225-0.396,0.307-0.409
		c2.445-0.449,2.119-1.124,2.13-2.922c0.015-2.49,0.025-4.979-0.002-7.471c-0.031-2.9,0.334-2.537-2.261-3.668
		c2.181,0,4.362,0,6.555,0c-0.019,0.087-0.014,0.217-0.052,0.232c-2.154,0.813-2.156,0.813-2.156,3.191
		c0,2.704,0.053,5.41-0.02,8.113c-0.04,1.426,0.338,2.349,1.911,2.437c0.11,0.006,0.22,0.108,0.323,0.178
		C71.386,33.557,71.393,33.611,71.5,33.854z"/>
</g>
</svg>
