<svg width="20" height="20" viewBox="0 0 20 20" xmlns="http://www.w3.org/2000/svg"><title>184DC1C9-61A6-4D6D-8E0B-79BBEEA80642</title><path d="M19.157 11.81c.373 0 .72-.302.772-.67 0 0 .07-.52.07-1.14 0-.62-.07-1.14-.07-1.14-.052-.368-.4-.67-.773-.67h-1.93c-.373 0-.76-.24-.86-.53-.1-.29-.24-1.226.025-1.49l1.363-1.363c.264-.264.284-.714.045-1.002L16.195 2.2c-.288-.24-.738-.22-1.002.045L13.83 3.608c-.264.265-.705.37-.978.237-.274-.135-1.04-.7-1.04-1.073V.844c0-.374-.304-.72-.673-.772 0 0-.52-.072-1.14-.072-.62 0-1.14.072-1.14.072-.368.05-.67.398-.67.772v1.93c0 .373-.24.76-.53.86-.292.1-1.226.24-1.49-.025L4.808 2.245c-.264-.265-.715-.285-1.002-.046L2.2 3.805c-.24.288-.22.738.045 1.002L3.608 6.17c.265.265.37.705.237.978-.135.273-.7 1.04-1.073 1.04H.844c-.374 0-.72.304-.772.673 0 0-.072.52-.072 1.14 0 .62.072 1.14.072 1.14.05.368.398.67.772.67h1.93c.373 0 .76.24.86.53.1.29.24 1.225-.026 1.49l-1.363 1.363c-.265.264-.284.714-.045 1.002L3.805 17.8c.288.24.738.22 1.002-.045l1.364-1.363c.265-.264.705-.37.98-.237.273.135 1.04.7 1.04 1.073v1.93c0 .372.303.72.672.77 0 0 .52.073 1.14.073.618 0 1.137-.07 1.137-.07.37-.052.673-.4.673-.773v-1.93c0-.373.237-.76.53-.86.29-.1 1.224-.24 1.487.025l1.364 1.363c.264.264.714.284 1.002.045l1.604-1.605c.24-.288.22-.738-.046-1.002L16.39 13.83c-.264-.265-.37-.705-.236-.98.135-.273.7-1.04 1.073-1.04h1.93zM10 13.66c-2.022 0-3.66-1.638-3.66-3.66 0-2.022 1.638-3.66 3.66-3.66 2.022 0 3.66 1.638 3.66 3.66 0 2.022-1.638 3.66-3.66 3.66z" fill="#444" fill-rule="evenodd"/></svg>
