<svg width="52" height="40" viewBox="0 0 52 40" xmlns="http://www.w3.org/2000/svg"><path d="M51.497 6.87c.11 3.126-2.86 5.815-6.208 5.528-.958-.082-1.943-.343-2.82-.726-1.722-.753-2.675-2.084-2.686-3.964C39.76 3.51 43.632.22 47.96 1.79c2.01.73 3.457 2.774 3.537 5.08zM38.405 17.753c-.367 3.854-2.085 7.794-5.223 11.09-2.41 2.532-5.346 4.353-8.504 5.894-2.36 1.153-4.624 2.502-6.902 3.81-1.386.798-2.805 1.485-4.444 1.437-2.417-.07-4.192-1.217-5.31-3.31-.29-.544-.566-1.112-.72-1.7-.784-2.965-2.025-5.75-3.275-8.545-1.518-3.393-2.233-6.986-2.315-10.68-.054-2.446-.328-4.85-.91-7.226C.455 7.104.36 5.662.768 4.24 1.58 1.397 4.298-.278 7.564.054c1.87.19 3.728.55 5.6.64 1.49.07 2.99-.185 4.49-.248C24.177.172 29.623 2.43 33.88 7.28c1.183 1.346 2.187 2.858 3.16 4.364 1.066 1.65 1.35 3.535 1.365 6.11zm-14.56.967l-8.766-.003c-1.415 0-2.48.823-2.48 1.915 0 1.083 1.09 1.93 2.48 1.93h3.552v-2.037h1.66v3.61H15.06c-2.367 0-4.222-1.54-4.222-3.503 0-1.955 1.855-3.487 4.222-3.487l8.767.002c1.413 0 2.478-.822 2.478-1.913 0-1.084-1.088-1.932-2.478-1.932h-3.554v2.038h-1.658v-3.61h5.23c2.368 0 4.223 1.54 4.223 3.504 0 1.955-1.855 3.486-4.223 3.486z" fill="#A8A8A8" fill-rule="evenodd"/></svg>
