<svg width="22" height="25" viewBox="0 0 22 25" xmlns="http://www.w3.org/2000/svg"><title>28115FF6-33D6-4819-95D2-124C71708EAF</title><defs><filter x="-50%" y="-50%" width="200%" height="200%" filterUnits="objectBoundingBox" id="a"><feOffset dy="3" in="SourceAlpha" result="shadowOffsetOuter1"/><feColorMatrix values="0 0 0 0 0.689413265 0 0 0 0 0.178676648 0 0 0 0 0.0663870373 0 0 0 1 0" in="shadowOffsetOuter1" result="shadowMatrixOuter1"/><feMerge><feMergeNode in="shadowMatrixOuter1"/><feMergeNode in="SourceGraphic"/></feMerge></filter></defs><path d="M18.735 21.054c-.37 1-.65 1.62-.68 1.684l-.12.27h-5.002l-.122-.273c-.026-.063-.296-.67-.653-1.654l-4.012 1.27 2.458-6.855c-.1-.524-.19-1.062-.262-1.61-.842-6.322.87-10.776 4.95-12.88L15.495.9l.204.104c4.082 2.104 5.773 6.56 4.89 12.883-.095.676-.214 1.338-.347 1.976l2.49 6.51-3.994-1.32zm-4.273 4.074c0-.626.496-1.136 1.105-1.136.61 0 1.106.51 1.106 1.136l-.01.088-1.11 4.76-1.09-4.848zm.972-13.932c-1.21 0-2.194-1.012-2.194-2.255 0-1.242.985-2.253 2.194-2.253 1.21 0 2.194 1.01 2.194 2.255 0 1.244-.984 2.256-2.194 2.256z" transform="rotate(45 17.766 7.402)" filter="url(#a)" fill="#FFF" fill-rule="evenodd"/></svg>
