<svg width="52" height="53" viewBox="0 0 52 53" xmlns="http://www.w3.org/2000/svg"><title>DDE25116-6733-499C-8EB8-5A280FD03039</title><path d="M21.114 42.752c-2.398 1.102-3.968 1.697-4.13 1.758l-.687.26-8.742-8.743.263-.69c.062-.16.654-1.695 1.747-4.04l-9.23-4.792 16.282-7.692c.742-1.09 1.527-2.187 2.357-3.272 9.58-12.526 20.36-17.32 31.17-13.865l.542.173.173.54c3.456 10.816-1.377 21.56-13.978 31.072-1.347 1.017-2.71 1.967-4.06 2.85l-7.027 15.733-4.68-9.29zM6.52 42.406c1.096-1.096 2.854-1.12 3.92-.055 1.065 1.067 1.04 2.825-.054 3.92l-.172.137-10.26 6.385L6.52 42.406zm26.06-22.66c-2.116-2.114-2.067-5.603.107-7.777 2.174-2.175 5.663-2.223 7.777-.108 2.114 2.114 2.067 5.603-.107 7.777-2.173 2.173-5.663 2.222-7.778.107z" fill="#A8A8A8" fill-rule="evenodd"/></svg>