<svg width="16" height="16" viewBox="0 0 16 16" xmlns="http://www.w3.org/2000/svg"><title>BCD5AD94-1E19-4A1B-A389-EDE66840EC34</title><path d="M15.368 7.385h-.09l-2.245.004h-.11c-.344.026-.616.29-.615.612 0 .34.3.612.67.613h2.405C15.73 8.588 16 8.322 16 8c0-.327-.278-.595-.632-.615zm-3.733-2.663V4.72l1.655-1.65.087-.09c.23-.27.214-.678-.042-.932-.26-.258-.675-.27-.947-.03l-.063.065-1.623 1.63-.077.078c-.23.27-.218.676.038.93.267.27.703.27.972.002zM8 0c-.327 0-.595.28-.615.632v.09l.005 2.245v.108c.027.346.29.617.612.617.338 0 .613-.3.613-.67V.615C8.587.27 8.322 0 8 0zM4.72 3.747L3.073 2.095l-.09-.088c-.27-.228-.677-.214-.933.042-.26.26-.27.675-.032.946l.064.064 1.63 1.62.08.08c.27.23.675.216.93-.038.268-.27.268-.704 0-.973v-.003zM3.076 8.61c.346-.026.617-.29.617-.612 0-.34-.3-.613-.67-.613H.615C.27 7.412 0 7.678 0 8c0 .328.28.595.632.615h.09l2.245-.006h.108zm.673 2.052l-.002.003-1.652 1.65-.087.088c-.228.27-.213.678.042.933.26.26.674.27.946.03l.064-.064 1.622-1.63.078-.08c.23-.27.217-.675-.038-.93-.27-.267-.705-.267-.974 0zm4.86 2.263c-.024-.346-.29-.617-.61-.617-.34 0-.613.3-.613.67v2.406c.028.346.292.617.615.617.327 0 .595-.28.615-.632v-.09l-.006-2.245v-.108zm4.693-.6l-1.63-1.62-.077-.08c-.27-.23-.676-.218-.93.038-.268.27-.27.704 0 .973l.002.002 1.65 1.652.088.086c.272.23.678.216.933-.04.26-.26.27-.675.03-.947l-.065-.065z" fill="#A8A8A8" fill-rule="evenodd"/></svg>