<?xml version="1.0" encoding="utf-8"?>
<!-- Generator: Adobe Illustrator 16.0.0, SVG Export Plug-In . SVG Version: 6.00 Build 0)  -->
<!DOCTYPE svg PUBLIC "-//W3C//DTD SVG 1.1//EN" "http://www.w3.org/Graphics/SVG/1.1/DTD/svg11.dtd">
<svg version="1.1" id="Layer_1" xmlns="http://www.w3.org/2000/svg" xmlns:xlink="http://www.w3.org/1999/xlink" x="0px" y="0px"
	 width="20px" height="20px" viewBox="0 0 20 20" enable-background="new 0 0 20 20" xml:space="preserve">
<g>
	<g>
		<path fill="#5D5D5D" d="M15.596,2.419H4.181c-1.7,0-3.083,1.383-3.083,3.082v7.042c0,1.698,1.383,3.082,3.083,3.082h7.271
			l3.48,3.479c0.117,0.118,0.275,0.181,0.436,0.181c0.079,0,0.159-0.015,0.235-0.047c0.229-0.096,0.381-0.32,0.381-0.569v-3.07
			c1.517-0.191,2.693-1.488,2.693-3.056V5.501C18.678,3.802,17.295,2.419,15.596,2.419z M17.445,12.543
			c0,1.019-0.83,1.849-1.85,1.849h-0.228c-0.341,0-0.617,0.275-0.617,0.617v2.172l-2.608-2.608
			c-0.115-0.116-0.272-0.181-0.437-0.181H4.181c-1.02,0-1.85-0.83-1.85-1.849V5.501c0-1.02,0.83-1.849,1.85-1.849h11.415
			c1.02,0,1.85,0.829,1.85,1.849V12.543z"/>
		<path fill="#5D5D5D" d="M14.425,6.784H5.352c-0.34,0-0.616,0.276-0.616,0.617c0,0.34,0.276,0.616,0.616,0.616h9.073
			c0.341,0,0.616-0.276,0.616-0.616C15.041,7.06,14.766,6.784,14.425,6.784z"/>
		<path fill="#5D5D5D" d="M14.425,10.236H5.352c-0.34,0-0.616,0.276-0.616,0.616s0.276,0.617,0.616,0.617h9.073
			c0.341,0,0.616-0.276,0.616-0.617S14.766,10.236,14.425,10.236z"/>
	</g>
</g>
</svg>
