<?xml version="1.0" encoding="utf-8"?>
<!-- Generator: Adobe Illustrator 16.0.0, SVG Export Plug-In . SVG Version: 6.00 Build 0)  -->
<!DOCTYPE svg PUBLIC "-//W3C//DTD SVG 1.1//EN" "http://www.w3.org/Graphics/SVG/1.1/DTD/svg11.dtd">
<svg version="1.1" id="Layer_1" xmlns="http://www.w3.org/2000/svg" xmlns:xlink="http://www.w3.org/1999/xlink" x="0px" y="0px"
	 width="30px" height="30px" viewBox="0 0 30 30" enable-background="new 0 0 30 30" xml:space="preserve">
<g>
	<path fill="#1559B5" d="M27.527,3.608c0,2.81,0,5.587,0,8.456c-0.939-0.942-1.836-1.843-2.745-2.76
		c-1.13,1.129-2.196,2.196-3.976,3.975c-1.097,1.1-1.408,1.408-2.099,2.098c-0.96-0.961-1.916-1.917-2.907-2.906
		c1.813-1.813,4.258-4.257,6.092-6.095C20.98,5.463,20.07,4.552,19.13,3.611C21.953,3.61,24.725,3.611,27.527,3.608z"/>
	<polygon fill="#1559B5" points="23.288,24.386 6.288,24.386 6.288,7.386 15.693,7.386 15.693,5.386 4.288,5.386 4.288,26.386 
		25.288,26.386 25.288,16.323 23.288,16.323 	"/>
</g>
</svg>
