<?xml version="1.0" encoding="utf-8"?>
<!-- Generator: Adobe Illustrator 16.0.0, SVG Export Plug-In . SVG Version: 6.00 Build 0)  -->
<!DOCTYPE svg PUBLIC "-//W3C//DTD SVG 1.1//EN" "http://www.w3.org/Graphics/SVG/1.1/DTD/svg11.dtd">
<svg version="1.1" id="Layer_1" xmlns="http://www.w3.org/2000/svg" xmlns:xlink="http://www.w3.org/1999/xlink" x="0px" y="0px"
	 width="16px" height="14px" viewBox="0 0 16 14" enable-background="new 0 0 16 14" xml:space="preserve">
<g>
	<g>
		<path fill="#5D5D5D" d="M4.763,8.339L4.294,8.803c-0.406,0.403-1.065,0.403-1.471,0C2.628,8.61,2.521,8.353,2.521,8.08
			s0.107-0.53,0.302-0.723l1.723-1.71c0.357-0.354,1.028-0.875,1.518-0.39C6.289,5.48,6.652,5.479,6.875,5.254
			c0.224-0.224,0.222-0.587-0.002-0.81C6.04,3.618,4.81,3.771,3.739,4.834L2.016,6.543C1.603,6.954,1.375,7.5,1.375,8.08
			c0,0.582,0.228,1.126,0.641,1.537C2.441,10.039,3,10.25,3.559,10.25c0.559,0,1.118-0.211,1.543-0.634L5.57,9.152
			c0.225-0.223,0.227-0.586,0.003-0.811S4.987,8.116,4.763,8.339z M9.983,1.699C9.09,0.812,7.84,0.764,7.014,1.585L6.43,2.164
			C6.205,2.387,6.203,2.75,6.426,2.975C6.65,3.199,7.012,3.2,7.237,2.977l0.584-0.579c0.428-0.425,0.989-0.25,1.355,0.114
			c0.195,0.194,0.303,0.451,0.303,0.724c0,0.273-0.108,0.531-0.303,0.724L7.338,5.783c-0.84,0.834-1.234,0.442-1.402,0.275
			C5.711,5.835,5.348,5.836,5.125,6.061C4.902,6.286,4.903,6.649,5.128,6.872c0.386,0.383,0.826,0.573,1.288,0.573
			c0.564,0,1.162-0.284,1.73-0.848l1.837-1.823c0.414-0.411,0.642-0.957,0.642-1.538C10.625,2.655,10.397,2.109,9.983,1.699z"/>
	</g>
</g>
</svg>
