<?xml version="1.0" encoding="utf-8"?>
<!-- Generator: Adobe Illustrator 16.0.0, SVG Export Plug-In . SVG Version: 6.00 Build 0)  -->
<!DOCTYPE svg PUBLIC "-//W3C//DTD SVG 1.1//EN" "http://www.w3.org/Graphics/SVG/1.1/DTD/svg11.dtd">
<svg version="1.1" id="Layer_1" xmlns="http://www.w3.org/2000/svg" xmlns:xlink="http://www.w3.org/1999/xlink" x="0px" y="0px"
	 width="20px" height="20px" viewBox="0 0 20 20" enable-background="new 0 0 20 20" xml:space="preserve">
<g>
	<g>
		<path fill="#5D5D5D" d="M10.062,12.9c-1.571,0-2.859-1.29-2.859-2.86c0-1.571,1.288-2.86,2.859-2.86s2.859,1.289,2.859,2.86
			C12.921,11.61,11.633,12.9,10.062,12.9z M10.062,8.429c-0.886,0-1.651,0.725-1.651,1.651c0,0.886,0.725,1.65,1.651,1.65
			c0.887,0,1.651-0.723,1.651-1.65C11.713,9.154,10.949,8.429,10.062,8.429z"/>
		<path fill="#5D5D5D" d="M10.022,18.86c-1.611-0.04-2.94-1.37-2.94-2.979c0-0.04,0-0.081,0-0.121
			c-0.162-0.082-0.363-0.202-0.523-0.322c-0.041,0-0.081,0.04-0.081,0.04c-0.684,0.403-1.49,0.483-2.255,0.282
			c-0.766-0.202-1.41-0.687-1.813-1.37c-0.403-0.684-0.524-1.489-0.282-2.255c0.202-0.766,0.684-1.411,1.369-1.813
			c0.041,0,0.08-0.039,0.121-0.039c0-0.121,0-0.202,0-0.323c0-0.08,0-0.202,0-0.282c-0.041,0-0.08-0.04-0.121-0.04
			C2.088,8.832,1.604,7.019,2.41,5.61C3.216,4.2,5.028,3.717,6.438,4.522c0.04,0,0.08,0.041,0.08,0.041
			C6.679,4.442,6.88,4.362,7.041,4.24c0-0.04,0-0.08,0-0.12c0-0.806,0.323-1.53,0.846-2.094C8.451,1.462,9.176,1.14,9.981,1.14
			c1.611,0,2.939,1.328,2.939,2.939c0,0.041,0,0.081,0,0.121c0.162,0.082,0.363,0.202,0.524,0.323c0.04,0,0.081-0.041,0.081-0.041
			c1.409-0.806,3.222-0.322,4.066,1.088c0.282,0.442,0.403,0.966,0.403,1.49c0,1.047-0.564,2.014-1.489,2.578
			c-0.042,0-0.083,0.04-0.123,0.04c0,0.121,0,0.202,0,0.322c0,0.081,0,0.202,0,0.283c0.04,0,0.081,0.039,0.123,0.039
			c0.925,0.524,1.489,1.532,1.489,2.579c0,0.523-0.121,1.006-0.403,1.449c-0.805,1.41-2.618,1.894-4.066,1.088
			c-0.041,0-0.081-0.04-0.081-0.04c-0.161,0.12-0.362,0.2-0.524,0.32c0,0.042,0,0.082,0,0.123c0,1.649-1.328,2.979-2.939,2.979
			h0.041V18.86z M6.559,14.188c0.121,0,0.241,0.04,0.362,0.12c0.323,0.242,0.685,0.443,1.088,0.605
			c0.282,0.12,0.403,0.404,0.362,0.685c-0.041,0.12-0.041,0.243-0.041,0.363c0,0.966,0.766,1.732,1.732,1.771h0.041
			c0.967,0,1.731-0.805,1.731-1.771c0-0.12,0-0.243-0.04-0.363c-0.04-0.28,0.08-0.564,0.361-0.685
			c0.362-0.162,0.726-0.363,1.049-0.605c0.241-0.16,0.563-0.16,0.764,0.042c0.082,0.08,0.202,0.16,0.283,0.2
			c0.845,0.483,1.933,0.201,2.376-0.644c0.161-0.282,0.241-0.563,0.241-0.886c0-0.644-0.321-1.207-0.886-1.531
			c-0.08-0.04-0.202-0.12-0.323-0.16c-0.281-0.082-0.443-0.363-0.401-0.645c0.04-0.201,0.04-0.402,0.04-0.604
			c0-0.201,0-0.403-0.04-0.645c-0.042-0.282,0.12-0.564,0.401-0.644c0.121-0.041,0.243-0.081,0.323-0.161
			c0.524-0.322,0.886-0.886,0.886-1.53c0-0.323-0.08-0.604-0.241-0.886c-0.484-0.846-1.571-1.127-2.417-0.644
			c-0.12,0.04-0.201,0.12-0.282,0.2c-0.201,0.202-0.523,0.202-0.765,0.042c-0.322-0.242-0.686-0.443-1.088-0.605
			c-0.281-0.12-0.402-0.402-0.362-0.684c0.041-0.121,0.041-0.242,0.041-0.363c0-0.966-0.805-1.732-1.772-1.732
			c-0.483,0-0.926,0.202-1.249,0.524C8.411,3.274,8.209,3.717,8.209,4.2c0,0.122,0,0.242,0.041,0.363
			c0.04,0.282-0.081,0.563-0.362,0.684C7.525,5.409,7.163,5.61,6.8,5.852c-0.241,0.161-0.563,0.161-0.765-0.04
			C5.914,5.73,5.833,5.65,5.753,5.61C4.907,5.127,3.82,5.409,3.336,6.254C2.853,7.101,3.135,8.147,3.981,8.631
			c0.121,0.04,0.202,0.12,0.322,0.161c0.282,0.08,0.443,0.362,0.403,0.644c-0.041,0.202-0.041,0.403-0.041,0.604
			c0,0.201,0,0.402,0.041,0.604c0.04,0.282-0.121,0.563-0.403,0.643c-0.121,0.042-0.242,0.082-0.322,0.162
			c-0.403,0.241-0.685,0.604-0.806,1.048c-0.121,0.443-0.041,0.927,0.161,1.327c0.242,0.403,0.604,0.686,1.047,0.807
			c0.443,0.12,0.926,0.04,1.33-0.161c0.081-0.04,0.161-0.12,0.282-0.202C6.276,14.228,6.438,14.188,6.559,14.188z"/>
	</g>
</g>
</svg>
