<?xml version="1.0" encoding="utf-8"?>
<!-- Generator: Adobe Illustrator 16.0.0, SVG Export Plug-In . SVG Version: 6.00 Build 0)  -->
<!DOCTYPE svg PUBLIC "-//W3C//DTD SVG 1.1//EN" "http://www.w3.org/Graphics/SVG/1.1/DTD/svg11.dtd">
<svg version="1.1" id="Layer_1" xmlns="http://www.w3.org/2000/svg" xmlns:xlink="http://www.w3.org/1999/xlink" x="0px" y="0px"
	 width="20px" height="20px" viewBox="0 0 20 20" enable-background="new 0 0 20 20" xml:space="preserve">
<g>
	<g id="Error">
		<g>
			<path fill="#5D5D5D" d="M13.516,7.323c-0.01-0.213-0.088-0.425-0.251-0.588c-0.164-0.162-0.375-0.243-0.588-0.251
				c-0.237-0.01-0.478,0.07-0.658,0.251L10,8.755l-2.019-2.02C7.8,6.554,7.561,6.476,7.323,6.484
				C7.11,6.493,6.899,6.573,6.737,6.735C6.574,6.898,6.494,7.11,6.485,7.323C6.475,7.561,6.555,7.8,6.737,7.981L8.755,10
				l-2.019,2.019c-0.182,0.182-0.261,0.421-0.251,0.658c0.009,0.213,0.088,0.424,0.251,0.587c0.162,0.163,0.374,0.242,0.586,0.251
				c0.237,0.01,0.477-0.069,0.658-0.251L10,11.245l2.02,2.02c0.181,0.182,0.421,0.26,0.658,0.25c0.213-0.008,0.424-0.087,0.587-0.25
				s0.242-0.374,0.251-0.588c0.01-0.237-0.069-0.477-0.251-0.658L11.245,10l2.02-2.019C13.445,7.8,13.524,7.561,13.516,7.323z
				 M10,0.606c-5.188,0-9.394,4.206-9.394,9.394c0,5.187,4.206,9.394,9.394,9.394c5.188,0,9.394-4.207,9.394-9.394
				C19.394,4.812,15.188,0.606,10,0.606z M10,17.633c-4.208,0-7.632-3.424-7.632-7.633S5.792,2.368,10,2.368
				c4.209,0,7.633,3.423,7.633,7.632S14.209,17.633,10,17.633z"/>
		</g>
	</g>
</g>
</svg>
